# xmcd
#
# Track frame offsets:
#	300
#	30662
#	52184
#	81249
#	117008
#	150611
#	191922
#	212722
#	241577
#
# Disc length: 3533 seconds
#
# Revision: 0
# Processed by: cddbd v1.5.2PL0 Copyright (c) Steve Scherf et al.
# Submitted via: audiograbber 1.83.01
#
DISCID=750dc909
DTITLE=Miller Anderson - From Lizard Rock [CD 1)
DYEAR=2009
DGENRE=Blues
TTITLE0=City Blues
TTITLE1=Fallin' Back Into The Blue
TTITLE2=Sinnin' For You
TTITLE3=Just To Cry
TTITLE4=Lewin' Trunk
TTITLE5=By The Light
TTITLE6=Borderline
TTITLE7=House Of The Risin' Sun
TTITLE8=Little Man Dancing
EXTD=
EXTT0=
EXTT1=
EXTT2=
EXTT3=
EXTT4=
EXTT5=
EXTT6=
EXTT7=
EXTT8=
PLAYORDER=
